<mxfile host="app.diagrams.net" modified="2020-09-04T10:50:30.066Z" agent="5.0 (Macintosh; Intel Mac OS X 10_15_2) AppleWebKit/537.36 (KHTML, like Gecko) Chrome/84.0.4147.135 Safari/537.36" etag="lal_X40CLn76eyKr56bL" version="13.6.6" type="github">
  <diagram id="prtHgNgQTEPvFCAcTncT" name="Page-1">
    <mxGraphModel dx="872" dy="422" grid="1" gridSize="10" guides="1" tooltips="1" connect="1" arrows="1" fold="1" page="1" pageScale="1" pageWidth="827" pageHeight="1169" math="0" shadow="0">
      <root>
        <mxCell id="0" />
        <mxCell id="1" parent="0" />
        <mxCell id="0_-cIZL938Ls0qubSqYC-9" value="" style="edgeStyle=orthogonalEdgeStyle;rounded=0;orthogonalLoop=1;jettySize=auto;html=1;endArrow=none;endFill=0;" edge="1" parent="1" source="0_-cIZL938Ls0qubSqYC-4" target="0_-cIZL938Ls0qubSqYC-5">
          <mxGeometry relative="1" as="geometry" />
        </mxCell>
        <mxCell id="0_-cIZL938Ls0qubSqYC-4" value="&lt;table border=&quot;1&quot; width=&quot;100%&quot; cellpadding=&quot;4&quot; style=&quot;width: 100% ; height: 100% ; border-collapse: collapse&quot;&gt;&lt;tbody&gt;&lt;tr&gt;&lt;th align=&quot;center&quot;&gt;CSS&lt;/th&gt;&lt;/tr&gt;&lt;tr&gt;&lt;td align=&quot;center&quot;&gt;player sprite image selection&lt;br&gt;player sight mask&lt;br&gt;&lt;br&gt;&lt;/td&gt;&lt;/tr&gt;&lt;tr&gt;&lt;td align=&quot;center&quot;&gt;shifts level grid to make player steps look sensible&lt;/td&gt;&lt;/tr&gt;&lt;/tbody&gt;&lt;/table&gt;" style="text;html=1;strokeColor=none;fillColor=none;overflow=fill;whiteSpace=wrap;" vertex="1" parent="1">
          <mxGeometry x="80" y="70" width="200" height="140" as="geometry" />
        </mxCell>
        <mxCell id="0_-cIZL938Ls0qubSqYC-10" value="" style="edgeStyle=orthogonalEdgeStyle;rounded=0;orthogonalLoop=1;jettySize=auto;html=1;endArrow=none;endFill=0;" edge="1" parent="1" source="0_-cIZL938Ls0qubSqYC-5" target="0_-cIZL938Ls0qubSqYC-6">
          <mxGeometry relative="1" as="geometry" />
        </mxCell>
        <mxCell id="0_-cIZL938Ls0qubSqYC-5" value="&lt;table border=&quot;1&quot; width=&quot;100%&quot; cellpadding=&quot;4&quot; style=&quot;width: 100% ; height: 100% ; border-collapse: collapse&quot;&gt;&lt;tbody&gt;&lt;tr&gt;&lt;th align=&quot;center&quot;&gt;HTML page&lt;/th&gt;&lt;/tr&gt;&lt;tr&gt;&lt;td align=&quot;center&quot;&gt;&lt;ul&gt;&lt;li&gt;calls main.js - to include JS code&lt;/li&gt;&lt;/ul&gt;&lt;/td&gt;&lt;/tr&gt;&lt;tr&gt;&lt;td align=&quot;center&quot;&gt;&lt;ul&gt;&lt;li&gt;calls css - to display game correctly&lt;/li&gt;&lt;li&gt;adds grid for the display of the game&lt;/li&gt;&lt;/ul&gt;&lt;/td&gt;&lt;/tr&gt;&lt;/tbody&gt;&lt;/table&gt;" style="text;html=1;strokeColor=none;fillColor=none;overflow=fill;whiteSpace=wrap;" vertex="1" parent="1">
          <mxGeometry x="360" y="70" width="280" height="140" as="geometry" />
        </mxCell>
        <mxCell id="0_-cIZL938Ls0qubSqYC-6" value="&lt;table border=&quot;1&quot; width=&quot;100%&quot; cellpadding=&quot;4&quot; style=&quot;width: 100% ; height: 100% ; border-collapse: collapse&quot;&gt;&lt;tbody&gt;&lt;tr&gt;&lt;th align=&quot;center&quot;&gt;main.js&lt;/th&gt;&lt;/tr&gt;&lt;tr&gt;&lt;td align=&quot;center&quot;&gt;&lt;b&gt;setup&lt;/b&gt;&lt;br&gt;&lt;ul&gt;&lt;li&gt;calls for the level data to be loaded&lt;/li&gt;&lt;li&gt;calls for user input detection to be made&lt;/li&gt;&lt;/ul&gt;&lt;/td&gt;&lt;/tr&gt;&lt;tr&gt;&lt;td align=&quot;center&quot;&gt;&lt;b&gt;main loop&lt;/b&gt;&lt;br&gt;&lt;ul&gt;&lt;li&gt;controls the timing of the game function&lt;/li&gt;&lt;li&gt;calls itself until and end condition is reached&lt;/li&gt;&lt;/ul&gt;&lt;/td&gt;&lt;/tr&gt;&lt;tr&gt;&lt;td style=&quot;text-align: center&quot;&gt;&lt;b&gt;display end screen&lt;/b&gt;&lt;br&gt;&lt;ul&gt;&lt;li&gt;displays text for monster end&lt;/li&gt;&lt;li&gt;displays text for treasure end&lt;/li&gt;&lt;/ul&gt;&lt;/td&gt;&lt;/tr&gt;&lt;/tbody&gt;&lt;/table&gt;" style="text;html=1;strokeColor=none;fillColor=none;overflow=fill;whiteSpace=wrap;" vertex="1" parent="1">
          <mxGeometry x="360" y="230" width="280" height="270" as="geometry" />
        </mxCell>
        <mxCell id="0_-cIZL938Ls0qubSqYC-11" value="&lt;table border=&quot;1&quot; width=&quot;100%&quot; cellpadding=&quot;4&quot; style=&quot;width: 100% ; height: 100% ; border-collapse: collapse&quot;&gt;&lt;tbody&gt;&lt;tr&gt;&lt;th align=&quot;center&quot;&gt;game.js&lt;/th&gt;&lt;/tr&gt;&lt;tr&gt;&lt;td align=&quot;center&quot;&gt;&lt;b&gt;draw&lt;/b&gt;&lt;br&gt;&lt;ul&gt;&lt;li&gt;draws&amp;nbsp; visible level and monsters to the game box&lt;/li&gt;&lt;/ul&gt;&lt;/td&gt;&lt;/tr&gt;&lt;tr&gt;&lt;td align=&quot;center&quot;&gt;&lt;b&gt;update&lt;/b&gt;&lt;br&gt;&lt;ul&gt;&lt;li&gt;calls the player to update based on use input&lt;/li&gt;&lt;/ul&gt;&lt;/td&gt;&lt;/tr&gt;&lt;tr&gt;&lt;td&gt;&lt;div style=&quot;text-align: center&quot;&gt;&lt;b&gt;check and draw player&lt;/b&gt;&lt;/div&gt;&lt;ul&gt;&lt;li style=&quot;text-align: center&quot;&gt;checks wether end conditions are met&lt;/li&gt;&lt;li style=&quot;text-align: center&quot;&gt;draws the player and needed grid offset&lt;/li&gt;&lt;/ul&gt;&lt;/td&gt;&lt;/tr&gt;&lt;/tbody&gt;&lt;/table&gt;" style="text;html=1;strokeColor=none;fillColor=none;overflow=fill;whiteSpace=wrap;" vertex="1" parent="1">
          <mxGeometry x="50" y="430" width="260" height="270" as="geometry" />
        </mxCell>
        <mxCell id="0_-cIZL938Ls0qubSqYC-12" value="&lt;table border=&quot;1&quot; width=&quot;100%&quot; cellpadding=&quot;4&quot; style=&quot;width: 100% ; height: 100% ; border-collapse: collapse&quot;&gt;&lt;tbody&gt;&lt;tr&gt;&lt;th align=&quot;center&quot;&gt;level.js&lt;/th&gt;&lt;/tr&gt;&lt;tr&gt;&lt;td align=&quot;center&quot;&gt;&lt;b&gt;draw&lt;/b&gt;&lt;br&gt;&lt;ul&gt;&lt;li&gt;adds the correct css for the level&lt;/li&gt;&lt;li&gt;adds the correct css for the grid offset&lt;/li&gt;&lt;/ul&gt;&lt;/td&gt;&lt;/tr&gt;&lt;tr&gt;&lt;td align=&quot;center&quot;&gt;&lt;b&gt;load level&lt;/b&gt;&lt;br&gt;&lt;ul&gt;&lt;li&gt;calls for the level data to be made into tiles&lt;/li&gt;&lt;li&gt;adds monsters into the right location&lt;/li&gt;&lt;li&gt;holds the index for the current level&lt;/li&gt;&lt;/ul&gt;&lt;/td&gt;&lt;/tr&gt;&lt;tr&gt;&lt;td style=&quot;text-align: center&quot;&gt;&lt;b&gt;find tile&lt;/b&gt;&lt;br&gt;&lt;ul&gt;&lt;li&gt;finds the tile based on specified location&lt;/li&gt;&lt;/ul&gt;&lt;/td&gt;&lt;/tr&gt;&lt;/tbody&gt;&lt;/table&gt;" style="text;html=1;strokeColor=none;fillColor=none;overflow=fill;" vertex="1" parent="1">
          <mxGeometry x="360" y="530" width="280" height="280" as="geometry" />
        </mxCell>
        <mxCell id="0_-cIZL938Ls0qubSqYC-13" value="&lt;table border=&quot;1&quot; width=&quot;100%&quot; cellpadding=&quot;4&quot; style=&quot;width: 100% ; height: 100% ; border-collapse: collapse&quot;&gt;&lt;tbody&gt;&lt;tr&gt;&lt;th align=&quot;center&quot;&gt;level data&lt;/th&gt;&lt;/tr&gt;&lt;tr&gt;&lt;td align=&quot;center&quot;&gt;store the level data as an array of string&lt;/td&gt;&lt;/tr&gt;&lt;/tbody&gt;&lt;/table&gt;" style="text;html=1;strokeColor=none;fillColor=none;overflow=fill;whiteSpace=wrap;" vertex="1" parent="1">
          <mxGeometry x="430" y="820" width="140" height="80" as="geometry" />
        </mxCell>
        <mxCell id="0_-cIZL938Ls0qubSqYC-14" value="&lt;table border=&quot;1&quot; width=&quot;100%&quot; cellpadding=&quot;4&quot; style=&quot;width: 100% ; height: 100% ; border-collapse: collapse&quot;&gt;&lt;tbody&gt;&lt;tr&gt;&lt;th align=&quot;center&quot;&gt;title.js&lt;/th&gt;&lt;/tr&gt;&lt;tr&gt;&lt;td align=&quot;center&quot;&gt;&lt;b&gt;create tiles&lt;/b&gt;&lt;br&gt;&lt;ul&gt;&lt;li&gt;turns given character into a tile&lt;/li&gt;&lt;/ul&gt;&lt;/td&gt;&lt;/tr&gt;&lt;tr&gt;&lt;td align=&quot;center&quot;&gt;&lt;b&gt;editing tiles&lt;/b&gt;&lt;br&gt;&lt;ul&gt;&lt;li&gt;changing tile properties when needed&lt;/li&gt;&lt;/ul&gt;&lt;/td&gt;&lt;/tr&gt;&lt;/tbody&gt;&lt;/table&gt;" style="text;html=1;strokeColor=none;fillColor=none;overflow=fill;" vertex="1" parent="1">
          <mxGeometry x="360" y="940" width="280" height="160" as="geometry" />
        </mxCell>
        <mxCell id="0_-cIZL938Ls0qubSqYC-16" value="&lt;table border=&quot;1&quot; width=&quot;100%&quot; cellpadding=&quot;4&quot; style=&quot;width: 100% ; height: 100% ; border-collapse: collapse&quot;&gt;&lt;tbody&gt;&lt;tr&gt;&lt;th align=&quot;center&quot;&gt;player.js&lt;br&gt;&lt;/th&gt;&lt;/tr&gt;&lt;tr&gt;&lt;td align=&quot;center&quot;&gt;&lt;b&gt;player data&lt;/b&gt;&lt;br&gt;&lt;ul&gt;&lt;li&gt;movement speed&lt;/li&gt;&lt;li&gt;player location&lt;/li&gt;&lt;li&gt;number of keys&lt;/li&gt;&lt;/ul&gt;&lt;/td&gt;&lt;/tr&gt;&lt;tr&gt;&lt;td align=&quot;center&quot;&gt;&lt;b&gt;updating player data&lt;/b&gt;&lt;br&gt;&lt;ul&gt;&lt;li&gt;changing player location&lt;/li&gt;&lt;li&gt;checking for interaction with tiles&lt;/li&gt;&lt;/ul&gt;&lt;/td&gt;&lt;/tr&gt;&lt;/tbody&gt;&lt;/table&gt;" style="text;html=1;strokeColor=none;fillColor=none;overflow=fill;" vertex="1" parent="1">
          <mxGeometry x="50" y="720" width="260" height="190" as="geometry" />
        </mxCell>
        <mxCell id="0_-cIZL938Ls0qubSqYC-17" value="&lt;table border=&quot;1&quot; width=&quot;100%&quot; cellpadding=&quot;4&quot; style=&quot;color: rgb(0 , 0 , 0) ; font-family: &amp;#34;helvetica&amp;#34; ; font-size: 12px ; font-style: normal ; font-weight: 400 ; letter-spacing: normal ; text-align: left ; text-indent: 0px ; text-transform: none ; word-spacing: 0px ; background-color: rgb(248 , 249 , 250) ; width: 260px ; height: 190px ; border-collapse: collapse&quot;&gt;&lt;tbody&gt;&lt;tr&gt;&lt;th align=&quot;center&quot;&gt;monster.js&lt;br&gt;&lt;/th&gt;&lt;/tr&gt;&lt;tr&gt;&lt;td align=&quot;center&quot;&gt;&lt;b&gt;monster data&lt;/b&gt;&lt;br&gt;&lt;ul&gt;&lt;li&gt;list of monsters&lt;/li&gt;&lt;li&gt;monster locations&lt;/li&gt;&lt;/ul&gt;&lt;/td&gt;&lt;/tr&gt;&lt;tr&gt;&lt;td align=&quot;center&quot;&gt;&lt;b&gt;updating monster data&lt;/b&gt;&lt;br&gt;&lt;ul&gt;&lt;li&gt;changing monster locations&lt;/li&gt;&lt;li&gt;removing and adding monsters&lt;/li&gt;&lt;/ul&gt;&lt;/td&gt;&lt;/tr&gt;&lt;/tbody&gt;&lt;/table&gt;" style="text;whiteSpace=wrap;html=1;" vertex="1" parent="1">
          <mxGeometry x="50" y="920" width="260" height="200" as="geometry" />
        </mxCell>
        <mxCell id="0_-cIZL938Ls0qubSqYC-18" value="&lt;table border=&quot;1&quot; width=&quot;100%&quot; cellpadding=&quot;4&quot; style=&quot;width: 100% ; height: 100% ; border-collapse: collapse&quot;&gt;&lt;tbody&gt;&lt;tr&gt;&lt;th align=&quot;center&quot;&gt;input.js&lt;/th&gt;&lt;/tr&gt;&lt;tr&gt;&lt;td align=&quot;center&quot;&gt;&lt;b&gt;inputs&lt;/b&gt;&lt;br&gt;&lt;ul&gt;&lt;li&gt;WASD keys, and touch screen&lt;/li&gt;&lt;li&gt;calls the right movement for the player&lt;/li&gt;&lt;li&gt;records whether an input is made&lt;/li&gt;&lt;/ul&gt;&lt;/td&gt;&lt;/tr&gt;&lt;tr&gt;&lt;td align=&quot;center&quot;&gt;&lt;b&gt;reset&lt;/b&gt;&lt;br&gt;&lt;ul&gt;&lt;li&gt;makes the input clear&lt;/li&gt;&lt;/ul&gt;&lt;/td&gt;&lt;/tr&gt;&lt;/tbody&gt;&lt;/table&gt;" style="text;html=1;strokeColor=none;fillColor=none;overflow=fill;whiteSpace=wrap;" vertex="1" parent="1">
          <mxGeometry x="50" y="230" width="260" height="180" as="geometry" />
        </mxCell>
      </root>
    </mxGraphModel>
  </diagram>
</mxfile>
